HIERARCHY
ROOT Hips
{
	OFFSET 0.00000 0.00000 0.00000
	CHANNELS 6 Xposition Yposition Zposition Yrotation Zrotation Xrotation 
	JOINT Lumbar
	{
		OFFSET 0 0 0
		CHANNELS 3 Zrotation Xrotation Yrotation
		JOINT Neck
		{
			OFFSET 0.00 0.2701 0.00
			CHANNELS 3 Zrotation Xrotation Yrotation
			End Site
			{
				OFFSET 0.00 0.1379 0.00
			}
		}
		JOINT RightShoulder
		{
			OFFSET 0.0119 0.2289 0.1181
			CHANNELS 3 Zrotation Xrotation Yrotation
			JOINT RightElbow
			{
				OFFSET 0.00 -0.1475 0.00
				CHANNELS 2 Zrotation Yrotation
				JOINT RightWrist
				{
					OFFSET 0.00 -0.1605 0.00
					CHANNELS 2 Zrotation Xrotation
					End Site
					{
						OFFSET 0.0040 -0.1068 0.0006
					}
				}
			}
		}
		JOINT LeftShoulder
		{
			OFFSET 0.0119 0.2289 -0.1181
			CHANNELS 3 Zrotation Xrotation Yrotation
			JOINT LeftElbow
			{
				OFFSET 0.00 -0.1475 0.00
				CHANNELS 2 Zrotation Yrotation
				JOINT LeftWrist
				{
					OFFSET 0.00 -0.1605 0.00
					CHANNELS 2 Zrotation Xrotation
					End Site
					{
						OFFSET 0.0040 -0.1068 -0.0006
					}
				}
			}
		}
	}
	JOINT RightHip
	{
		OFFSET 0.0316 -0.0424 0.0458
		CHANNELS 3 Zrotation Xrotation Yrotation
		JOINT RightKnee
		{
			OFFSET 0.00 -0.2438 0.00
			CHANNELS 1 Zrotation
			JOINT RightAnkle
			{
				OFFSET 0.00 -0.2449 0.00
				CHANNELS 3 Zrotation Xrotation Yrotation
				End Site
				{
					OFFSET 0.1237 -0.0542 0.0051
				}
			}
		}
	}
	JOINT LeftHip
	{
		OFFSET 0.0316 -0.0424 -0.0458
		CHANNELS 3 Zrotation Xrotation Yrotation
		JOINT LeftKnee
		{
			OFFSET 0.00 -0.2438 0.00
			CHANNELS 1 Zrotation
			JOINT LeftAnkle
			{
				OFFSET 0.00 -0.2449 0.00
				CHANNELS 3 Zrotation Xrotation Yrotation
				End Site
				{
					OFFSET 0.1237 -0.0542 -0.0051
				}
			}
		}
	}
}
MOTION
Frames: 33
Frame Time: 0.02
-1.40014 0.29187 -0.25339 901.4158 0 14.56125 -15.144 -2.71945 -5.10219 -12.00215 3.01182 -2.55313 32.0376 -25.55448 -7.40655 81.4388 69.03257 -12.02701 -0.16063 17.03624 14.15772 -10.67087 93.02252 -99.20807 -42.85832 5.35216 16.53798 -10.01775 -19.92387 -127.68023 17.98558 -19.85566 -16.15364 82.39586 -1.80505 15.87895 -116.76477 16.60371 -9.9748 -10.06475
-1.40059 0.29203 -0.25428 901.523 0 14.62256 -15.09894 -2.77333 -5.18091 -11.10601 2.76713 -2.87681 30.56312 -25.44482 -7.17856 82.1495 69.54878 -12.49657 -0.35754 16.49288 14.45602 -11.09193 93.25265 -99.14766 -42.75508 5.34808 16.44026 -9.96295 -20.10826 -127.53758 17.98262 -19.82768 -16.21729 82.19202 -1.23988 16.48508 -116.75966 16.60649 -9.7343 -9.7224
-1.40119 0.29221 -0.25519 901.58869 0 14.68896 -15.00791 -2.86071 -5.22714 -10.09219 2.44194 -3.24466 29.11513 -25.39431 -6.89123 83.36955 70.10099 -13.16335 -0.5843 15.79958 14.82138 -11.50996 93.53352 -99.06966 -42.63238 5.34388 16.33192 -9.90419 -20.27032 -127.38779 17.96941 -19.78864 -16.20768 81.9615 -0.64865 17.10852 -116.77493 16.60493 -9.44196 -9.33834
-1.40173 0.29239 -0.25608 901.66802 0 14.75362 -14.93436 -2.93096 -5.28307 -9.14094 2.1367 -3.58867 27.67386 -25.31308 -6.6342 84.41152 70.71442 -13.72906 -0.81325 15.18745 15.17197 -11.93523 93.79164 -98.99281 -42.51668 5.33894 16.22802 -9.848 -20.43646 -127.24226 17.96163 -19.75578 -16.23409 81.74057 -0.07032 17.7225 -116.78095 16.60478 -9.17286 -8.9758
-1.40225 0.29256 -0.25703 901.76926 0 14.81585 -14.87413 -3.01036 -5.36122 -8.14606 1.90076 -3.9497 26.14904 -25.24953 -6.35863 85.23716 71.00799 -14.34045 -0.97876 14.51524 15.45662 -12.33453 94.04837 -98.94714 -42.4084 5.33737 16.12468 -9.78786 -20.6291 -127.09091 17.95079 -19.71776 -16.25225 81.52912 0.51382 18.3457 -116.78708 16.60804 -8.90318 -8.59757
-1.40284 0.29275 -0.25786 901.81513 0 14.88396 -14.77482 -3.07841 -5.38569 -7.22004 1.5036 -4.28511 24.81582 -25.1648 -6.10628 86.62917 71.97222 -14.90686 -1.28124 13.93824 15.8929 -12.78778 94.3191 -98.83172 -42.28069 5.32882 16.0179 -9.73486 -20.76085 -126.95028 17.94373 -19.68789 -16.26875 81.29239 1.09122 18.95104 -116.79812 16.60264 -8.62527 -8.2465
-1.40356 0.29299 -0.25838 901.71731 0 14.97194 -14.58899 -3.10512 -5.26203 -6.46505 0.65821 -4.5418 23.88846 -24.98096 -5.9696 89.4793 74.79134 -15.27089 -1.96773 13.61489 16.74908 -13.38929 94.6279 -98.52572 -42.09751 5.30015 15.90628 -9.70762 -20.73077 -126.84448 17.95055 -19.68414 -16.30098 80.98835 1.64712 19.52508 -116.81309 16.5763 -8.3106 -7.94935
-1.40433 0.29325 -0.25878 901.56545 0 15.0649 -14.36376 -3.11966 -5.08677 -5.79268 -0.342 -4.77043 23.17487 -24.77834 -5.85238 92.87536 78.2787 -15.58746 -2.78799 13.40115 17.75176 -14.04546 94.94685 -98.15075 -41.89651 5.26463 15.79134 -9.68701 -20.64003 -126.74926 17.9613 -19.68879 -16.3332 80.66065 2.1943 20.07628 -116.83296 16.54103 -7.99415 -7.68696
-1.40509 0.2935 -0.25924 901.43888 0 15.15232 -14.15029 -3.14042 -4.93997 -5.11375 -1.25739 -5.01003 22.43772 -24.60061 -5.7033 96.01056 81.45453 -15.94662 -3.5386 13.16762 18.67692 -14.67791 95.25374 -97.8078 -41.70812 5.23276 15.67681 -9.66009 -20.57628 -126.64728 17.96966 -19.68916 -16.36344 80.34659 2.74336 20.6233 -116.85365 16.50834 -7.69617 -7.42963
-1.40582 0.29377 -0.25969 901.30752 0 15.25332 -13.9614 -3.15836 -4.77067 -4.29906 -2.23908 -5.2591 21.38675 -24.35496 -5.64984 99.22546 84.67458 -16.22791 -4.32909 12.80249 19.65344 -15.30614 95.59438 -97.4592 -41.50057 5.1985 15.56664 -9.64657 -20.5138 -126.55356 17.98033 -19.69138 -16.39954 80.0195 3.30315 21.23254 -116.86261 16.48135 -7.32259 -7.08328
-1.40661 0.29401 -0.26013 901.17418 0 15.32765 -13.71224 -3.18021 -4.63673 -3.78934 -3.1153 -5.48069 21.04504 -24.24679 -5.40181 102.38738 87.94854 -16.65252 -5.06614 12.73894 20.55332 -15.95537 95.86579 -97.10899 -41.32825 5.16773 15.44658 -9.60723 -20.43508 -126.44485 17.98712 -19.69151 -16.4244 79.71416 3.83691 21.70638 -116.89639 16.44095 -7.10576 -6.93047
-1.40753 0.29418 -0.26055 901.04591 0 15.32273 -13.30922 -3.20393 -4.61011 -4.09364 -3.68818 -5.63754 22.56404 -24.51132 -4.6202 105.34969 91.31039 -17.52661 -5.6372 13.48666 21.23589 -16.65599 95.94912 -96.74749 -41.26404 5.14723 15.30174 -9.49103 -20.32205 -126.29587 17.98324 -19.6872 -16.4178 79.47619 4.31137 21.81282 -117.00194 16.3612 -7.33072 -7.30974
-1.4085 0.29432 -0.26096 900.91832 0 15.29149 -12.8466 -3.23402 -4.62138 -4.70413 -4.14421 -5.76671 24.79681 -24.9163 -3.64149 108.2207 94.68302 -18.5376 -6.14688 14.53362 21.83018 -17.37447 95.96108 -96.39132 -41.235 5.13069 15.14681 -9.34928 -20.1958 -126.13083 17.97513 -19.67995 -16.40006 79.26098 4.75771 21.78338 -117.13145 16.26909 -7.71198 -7.88142
-1.40945 0.29448 -0.26138 900.79227 0 15.27526 -12.40962 -3.26888 -4.61768 -5.18016 -4.63658 -5.90548 26.73378 -25.26474 -2.74702 111.08028 97.98462 -19.45746 -6.67534 15.44115 22.44493 -18.08048 96.00191 -96.04829 -41.18546 5.11302 14.99545 -9.222 -20.07843 -125.97075 17.96838 -19.67184 -16.38835 79.03425 5.21011 21.81563 -117.24688 16.18569 -8.01656 -8.36152
-1.4104 0.29462 -0.26177 900.65611 0 15.24671 -11.97737 -3.27115 -4.6035 -5.63902 -5.20572 -6.05571 28.56169 -25.58349 -1.87316 114.18911 101.59312 -20.49836 -7.24762 16.36793 23.14836 -18.8073 96.05843 -95.63689 -41.15351 5.09223 14.84826 -9.08332 -19.94638 -125.82079 17.96429 -19.67314 -16.37357 78.81085 5.69115 21.84793 -117.37563 16.08913 -8.3456 -8.86129
-1.41137 0.29479 -0.26222 900.54239 0 15.23704 -11.5216 -3.34277 -4.61979 -6.20552 -5.5845 -6.17605 30.77831 -25.99557 -0.9125 116.74182 104.55077 -21.31962 -7.71146 17.32302 23.64351 -19.49365 96.06487 -95.37035 -41.09456 5.07906 14.69006 -8.96168 -19.84307 -125.64595 17.95344 -19.65423 -16.36122 78.58725 6.10528 21.84743 -117.48267 16.01689 -8.65995 -9.36403
-1.41236 0.29509 -0.2628 900.48635 0 15.28993 -11.01601 -3.60617 -4.71968 -6.99201 -5.47124 -6.21933 33.93429 -26.64824 0.26558 117.84543 105.74892 -21.50547 -7.89707 18.2931 23.59021 -20.06906 95.95285 -95.50054 -40.94358 5.08502 14.50365 -8.89812 -19.81826 -125.40504 17.92627 -19.57843 -16.37018 78.34883 6.3471 21.7959 -117.52033 16.01728 -8.90345 -9.83904
-1.41337 0.29541 -0.26343 900.45392 0 15.362 -10.48901 -3.93882 -4.84731 -7.87604 -5.16887 -6.23396 37.44601 -27.38636 1.51842 118.37693 106.27903 -21.46446 -7.97353 19.27854 23.32885 -20.60173 95.79235 -95.77689 -40.76591 5.09869 14.30661 -8.85171 -19.82387 -125.13985 17.89225 -19.48271 -16.38006 78.11116 6.52147 21.71503 -117.5359 16.04219 -9.12535 -10.30811
-1.41438 0.29572 -0.26405 900.41367 0 15.42259 -9.97154 -4.23867 -4.95708 -8.71682 -4.94874 -6.26257 40.76984 -28.0748 2.72142 119.12648 107.0874 -21.52515 -8.09566 20.25035 23.15843 -21.15052 95.65248 -95.9882 -40.60648 5.10951 14.11464 -8.79421 -19.81858 -124.88655 17.86043 -19.39722 -16.38139 77.87897 6.72317 21.6435 -117.56393 16.05431 -9.35191 -10.77249
-1.41539 0.29605 -0.26463 900.36115 0 15.49372 -9.45242 -4.54452 -5.09131 -9.56478 -4.73952 -6.28575 44.23821 -28.81598 4.00254 120.05359 108.01075 -21.59841 -8.23366 21.2624 22.9995 -21.7146 95.51621 -96.19448 -40.42275 5.11785 13.92125 -8.74952 -19.80056 -124.62901 17.83206 -19.30657 -16.41546 77.62296 6.93819 21.58389 -117.58274 16.07287 -9.60557 -11.27499
-1.41639 0.29633 -0.26529 900.33978 0 15.54805 -8.93294 -4.85404 -5.17945 -10.41574 -4.46511 -6.31428 47.46964 -29.46317 5.13076 120.47199 108.52669 -21.58744 -8.31184 22.1883 22.76932 -22.23558 95.36166 -96.44505 -40.28247 5.13297 13.72849 -8.68282 -19.81632 -124.37485 17.79522 -19.2221 -16.38319 77.41645 7.1095 21.49448 -117.61501 16.08408 -9.79575 -11.69394
-1.41735 0.29647 -0.26615 900.39851 0 15.54949 -8.41384 -5.1583 -5.14425 -11.25975 -4.05005 -6.36022 50.04856 -29.85078 5.86288 119.65896 108.15545 -21.41813 -8.26469 22.88844 22.3857 -22.65496 95.17037 -96.78909 -40.27169 5.16624 13.53979 -8.54934 -19.91902 -124.13535 17.73414 -19.15844 -16.15483 77.34618 7.17931 21.32904 -117.69115 16.06848 -9.81396 -11.88415
-1.41831 0.29655 -0.26709 900.48767 0 15.53396 -7.89624 -5.46347 -5.05975 -12.10009 -3.57834 -6.41317 52.35541 -30.13578 6.42888 118.3474 107.38226 -21.16702 -8.15847 23.49673 21.93988 -23.03092 94.96236 -97.17112 -40.30474 5.2058 13.35225 -8.39379 -20.05441 -123.9004 17.66525 -19.10194 -15.86209 77.32551 7.20711 21.13575 -117.78117 16.04476 -9.76855 -11.98927
-1.41927 0.29665 -0.26799 900.56314 0 15.52735 -7.38072 -5.76731 -4.99029 -12.93512 -3.13697 -6.4663 54.72635 -30.45395 7.04134 117.24324 106.74545 -20.94123 -8.07157 24.13535 21.52735 -23.42229 94.76114 -97.53146 -40.31573 5.24159 13.16435 -8.24942 -20.17429 -123.66376 17.60159 -19.04293 -15.60718 77.28229 7.25244 20.95616 -117.86391 16.02518 -9.75284 -12.13218
-1.42024 0.29676 -0.2689 900.63934 0 15.51575 -6.8524 -6.07777 -4.95192 -13.8039 -2.66724 -6.50545 57.36622 -30.83391 7.78073 116.20195 106.2848 -20.7604 -8.01456 24.82351 21.08436 -23.83097 94.56163 -97.91647 -40.33526 5.28148 12.97516 -8.09996 -20.29841 -123.4243 17.53058 -18.98005 -15.31611 77.23957 7.30186 20.76995 -117.95019 16.00467 -9.73338 -12.27923
-1.42118 0.29685 -0.2698 900.72031 0 15.51096 -6.35183 -6.37334 -4.83796 -14.59932 -2.24845 -6.57418 59.3708 -31.05732 8.21328 114.91626 105.36543 -20.46599 -7.88022 25.38561 20.69521 -24.19318 94.35516 -98.25607 -40.34724 5.31424 12.78936 -7.95665 -20.42054 -123.19257 17.47311 -18.9272 -15.08502 77.20705 7.33386 20.59268 -118.03241 15.98369 -9.70658 -12.39688
-1.42201 0.2969 -0.2707 900.81208 0 15.52293 -5.92405 -6.63028 -4.51627 -15.19931 -1.96123 -6.7369 59.73315 -30.89262 7.8559 113.10175 103.32662 -19.90975 -7.5691 25.62804 20.45052 -24.44335 94.13456 -98.46971 -40.33219 5.32549 12.61038 -7.82692 -20.53342 -122.97743 17.45523 -18.90038 -15.03571 77.19493 7.32682 20.43555 -118.10254 15.96476 -9.67743 -12.4593
-1.42281 0.29694 -0.27159 900.90644 0 15.54332 -5.52501 -6.87113 -4.12194 -15.72363 -1.73258 -6.92681 59.45471 -30.56979 7.1924 111.05704 100.83659 -19.23822 -7.17904 25.7453 20.26713 -24.64739 93.90775 -98.63371 -40.30741 5.3293 12.4353 -7.70561 -20.64214 -122.77079 17.45123 -18.88352 -15.0489 77.19052 7.30439 20.2906 -118.16779 15.94529 -9.64274 -12.49419
-1.42362 0.29699 -0.27247 900.99627 0 15.5639 -5.11508 -7.11746 -3.76818 -16.27835 -1.493 -7.09502 59.4386 -30.30657 6.65711 109.1046 98.52145 -18.59846 -6.81048 25.91616 20.06913 -24.86912 93.68315 -98.81431 -40.28411 5.33671 12.25996 -7.58623 -20.74993 -122.56272 17.4407 -18.86212 -15.03319 77.17968 7.28997 20.14774 -118.23363 15.92507 -9.60912 -12.53822
-1.42444 0.29703 -0.2734 901.10166 0 15.56727 -4.69561 -7.37242 -3.38157 -16.85099 -1.18467 -7.30233 59.5372 -30.09205 6.16022 107.18581 96.3096 -18.03864 -6.49859 26.0987 19.81175 -25.10326 93.45981 -99.02256 -40.27433 5.34361 12.07815 -7.44214 -20.87116 -122.34428 17.43078 -18.8409 -15.01729 77.18291 7.26921 19.97188 -118.30657 15.90875 -9.57935 -12.59317
-1.42523 0.29709 -0.27422 901.17445 0 15.60831 -4.30332 -7.60453 -3.04583 -17.36693 -1.03472 -7.43528 59.24567 -29.73926 5.51518 105.14971 93.79286 -17.29126 -6.05306 26.22711 19.69487 -25.30102 93.23348 -99.15957 -40.23405 5.3495 11.91085 -7.35139 -20.96252 -122.14972 17.42308 -18.82174 -15.0175 77.15803 7.25924 19.86778 -118.36367 15.88433 -9.54108 -12.62036
-1.42591 0.29728 -0.27476 901.15978 0 15.75462 -3.97507 -7.78607 -2.87684 -17.75607 -1.30411 -7.35006 58.05451 -29.04868 4.51701 102.84203 90.44514 -16.00963 -5.23818 26.24683 19.93968 -25.41075 92.99329 -99.12295 -40.10697 5.35621 11.7817 -7.40936 -20.97612 -122.01629 17.41751 -18.80462 -15.04745 77.05347 7.27737 19.96107 -118.37583 15.83728 -9.48106 -12.57438
-1.42655 0.2975 -0.27519 901.11146 0 15.9379 -3.67408 -7.94344 -2.76037 -18.08801 -1.73177 -7.19015 56.48982 -28.224 3.3853 100.42793 86.82777 -14.55176 -4.29576 26.21429 20.32622 -25.4853 92.75186 -99.01411 -39.95021 5.36179 11.66723 -7.52005 -20.95893 -121.90707 17.41392 -18.7895 -15.0919 76.92021 7.30818 20.12579 -118.37261 15.78226 -9.41299 -12.50243
